<svg width="20" height="17" viewBox="0 0 20 17" fill="none" xmlns="http://www.w3.org/2000/svg">
<path d="M15.4022 15.0351C15.4022 16.0719 13.0007 16.9123 10.0382 16.9123C7.07583 16.9123 4.67432 16.0719 4.67432 15.0351C4.67432 13.9984 7.07573 13.1577 10.0382 13.1577C13.0008 13.1577 15.4022 13.9994 15.4022 15.0351" fill="#A0DCF2"/>
<path d="M15.4022 15.0351C15.4022 16.0719 13.0007 16.9123 10.0382 16.9123C7.07583 16.9123 4.67432 16.0719 4.67432 15.0351C4.67432 13.9984 7.07573 13.1577 10.0382 13.1577C13.0008 13.1577 15.4022 13.9994 15.4022 15.0351" fill="#82BDE7"/>
<path d="M3.91125 9.51521L3.75643 10.0547C3.75643 10.0547 3.71615 10.2497 3.89985 10.2842C4.09165 10.2805 4.07598 10.1009 4.06256 10.0428L3.91125 9.51532V9.51521Z" fill="#A0DCF2"/>
<path d="M19.5047 7.25339L19.5188 7.18328C17.9453 6.86862 16.3305 6.86543 15.3526 6.90602C15.5131 6.32786 15.5614 5.66254 15.5614 4.9206C15.5614 3.85655 15.1616 3.00529 14.5126 2.35755C14.6261 1.99154 14.7776 1.17842 14.3613 0.13771C14.3613 0.13771 13.6261 -0.0954286 11.9664 1.01604C11.3158 0.853435 10.6234 0.773094 9.92994 0.773094C9.16702 0.773094 8.3961 0.870271 7.67707 1.0675C5.96304 -0.101928 5.20651 0.137605 5.20651 0.137605C4.71253 1.37363 5.01791 2.2868 5.11061 2.51397C4.5301 3.14051 4.17571 3.94009 4.17571 4.9205C4.17571 5.66073 4.2601 6.32467 4.46596 6.90176C3.48065 6.86596 1.92465 6.87971 0.40625 7.18307L0.420315 7.25318C1.9467 6.9479 3.5123 6.93724 4.49068 6.97433C4.53597 7.09367 4.58658 7.20874 4.64305 7.32169C3.67469 7.35291 2.0214 7.4762 0.436831 7.9233L0.456224 7.99202C2.05326 7.54162 3.72104 7.42132 4.68003 7.39212C5.25861 8.47045 6.39928 9.1671 8.4286 9.38468C8.14048 9.57819 7.84681 9.90723 7.72747 10.4641C7.33503 10.6516 6.09261 11.11 5.34705 9.82795C5.34705 9.82795 4.92979 9.06502 4.13106 9.00535C4.13106 9.00535 3.35641 8.9947 4.07746 9.48804C4.07746 9.48804 4.59606 9.73237 4.95366 10.6495C4.95366 10.6495 5.42036 12.2153 7.67206 11.7129V13.3304C7.67206 13.3304 7.62443 13.9026 7.09987 14.0931C7.09987 14.0931 6.79001 14.3077 7.12374 14.4266C7.12374 14.4266 8.57767 14.5459 8.57767 13.3541V11.5905C8.57767 11.5905 8.52013 10.8909 8.86355 10.6479V13.5469C8.86355 13.5469 8.8399 14.2381 8.4823 14.5003C8.4823 14.5003 8.24394 14.9292 8.76829 14.8102C8.76829 14.8102 9.76926 14.6672 9.817 13.4993L9.8398 10.5676H10.0803L10.1032 13.4993C10.1508 14.6671 11.1519 14.8102 11.1519 14.8102C11.6762 14.9292 11.4378 14.5003 11.4378 14.5003C11.0803 14.2382 11.0565 13.5469 11.0565 13.5469V10.6749C11.4 10.9413 11.3425 11.5926 11.3425 11.5926V13.3563C11.3425 14.548 12.7964 14.4287 12.7964 14.4287C13.1299 14.3097 12.8203 14.0952 12.8203 14.0952C12.2959 13.9034 12.2481 13.3325 12.2481 13.3325V11.0206C12.2481 10.1192 11.8685 9.64159 11.4972 9.38959C13.6603 9.17499 14.6998 8.4762 15.1785 7.39042C16.1264 7.41642 17.8323 7.53192 19.4641 7.99245L19.4835 7.92372C17.861 7.46607 16.1664 7.34769 15.2088 7.31977C15.2542 7.21002 15.2938 7.09601 15.3289 6.9788C16.2991 6.93618 17.9212 6.93778 19.5009 7.25371" fill="#292929"/>
<path d="M13.4454 4.86946C13.9116 5.29173 14.1843 5.8018 14.1843 6.35109C14.1843 8.91638 12.2718 8.98596 9.91303 8.98596C7.55425 8.98596 5.6416 8.63188 5.6416 6.35215C5.6416 5.80638 5.91054 5.29961 6.37096 4.87905C7.13879 4.17813 8.43854 4.54926 9.91282 4.54926C11.3813 4.54926 12.6762 4.1744 13.4451 4.87052" fill="#F5CDB5"/>
<path d="M8.49287 6.4829C8.49287 7.18935 8.09499 7.76218 7.60421 7.76218C7.11342 7.76218 6.71533 7.18946 6.71533 6.4829C6.71533 5.77634 7.11342 5.20382 7.60421 5.20382C8.09499 5.20382 8.49287 5.77634 8.49287 6.4829Z" fill="white"/>
<path d="M8.20759 6.49899C8.20759 6.96996 7.9412 7.35163 7.61515 7.35163C7.28909 7.35163 7.02271 6.96996 7.02271 6.49899C7.02271 6.02802 7.28781 5.64591 7.61515 5.64591C7.94248 5.64591 8.20759 6.0278 8.20759 6.49899Z" fill="#B1645A"/>
<path d="M13.2607 6.4829C13.2607 7.18935 12.8628 7.76218 12.3718 7.76218C11.8808 7.76218 11.4832 7.18946 11.4832 6.4829C11.4832 5.77634 11.8811 5.20382 12.3718 5.20382C12.8625 5.20382 13.2607 5.77634 13.2607 6.4829Z" fill="white"/>
<path d="M12.9754 6.49899C12.9754 6.96995 12.709 7.35163 12.383 7.35163C12.0569 7.35163 11.7905 6.96995 11.7905 6.49899C11.7905 6.02802 12.0569 5.64591 12.383 5.64591C12.709 5.64591 12.9754 6.0278 12.9754 6.49899ZM10.1479 7.6178C10.1479 7.74055 10.0484 7.84007 9.92564 7.84007C9.80289 7.84007 9.70337 7.74055 9.70337 7.6178C9.70337 7.49505 9.80278 7.39553 9.92564 7.39553C10.0485 7.39553 10.1479 7.49505 10.1479 7.6178ZM9.40789 8.17988C9.40477 8.17102 9.40341 8.16165 9.40391 8.15227C9.40441 8.1429 9.40675 8.13371 9.41079 8.12524C9.41484 8.11677 9.42051 8.10919 9.42749 8.10291C9.43447 8.09663 9.44262 8.09179 9.45147 8.08866C9.46032 8.08554 9.4697 8.08418 9.47908 8.08468C9.48845 8.08518 9.49763 8.08752 9.5061 8.09157C9.51457 8.09561 9.52216 8.10129 9.52844 8.10827C9.53472 8.11525 9.53956 8.1234 9.54268 8.13225C9.5998 8.29368 9.75291 8.40215 9.92383 8.40215C10.0947 8.40215 10.2478 8.29368 10.3051 8.13225C10.3082 8.1234 10.313 8.11526 10.3193 8.10829C10.3256 8.10131 10.3332 8.09564 10.3416 8.0916C10.3501 8.08756 10.3593 8.08523 10.3687 8.08473C10.378 8.08424 10.3874 8.08559 10.3962 8.08872C10.4051 8.09185 10.4132 8.09668 10.4202 8.10296C10.4272 8.10923 10.4328 8.11682 10.4369 8.12528C10.4409 8.13375 10.4433 8.14292 10.4437 8.15229C10.4442 8.16166 10.4429 8.17103 10.4398 8.17988C10.4014 8.28588 10.3312 8.37749 10.2389 8.44223C10.1466 8.50697 10.0366 8.5417 9.92383 8.5417C9.81107 8.5417 9.70106 8.50697 9.60874 8.44223C9.51643 8.37749 9.4463 8.28588 9.40789 8.17988" fill="#B1645A"/>
<path d="M4.48013 9.19716C4.48013 9.25651 4.41066 9.30435 4.3251 9.30435C4.23953 9.30435 4.17017 9.2564 4.17017 9.19716C4.17017 9.13792 4.23943 9.08975 4.3251 9.08975C4.41076 9.08975 4.48013 9.1377 4.48013 9.19716ZM4.90933 9.43531C4.90933 9.49466 4.83986 9.54272 4.7543 9.54272C4.66873 9.54272 4.59937 9.49477 4.59937 9.43531C4.59937 9.37585 4.66863 9.32812 4.7543 9.32812C4.83996 9.32812 4.90933 9.37606 4.90933 9.43531ZM5.17167 9.74432C5.17167 9.80345 5.10241 9.85151 5.01663 9.85151C4.93086 9.85151 4.86181 9.80356 4.86181 9.74432C4.86181 9.68507 4.93107 9.63691 5.01663 9.63691C5.10219 9.63691 5.17167 9.68486 5.17167 9.74432ZM5.40982 10.102C5.40982 10.1614 5.34056 10.2094 5.25499 10.2094C5.16943 10.2094 5.09996 10.1615 5.09996 10.102C5.09996 10.0426 5.16922 9.99461 5.25499 9.99461C5.34077 9.99461 5.40982 10.0426 5.40982 10.102ZM5.67215 10.4369C5.67215 10.4961 5.60289 10.5441 5.51722 10.5441C5.43155 10.5441 5.36219 10.4962 5.36219 10.4369C5.36219 10.3777 5.43166 10.3295 5.51722 10.3295C5.60279 10.3295 5.67215 10.3775 5.67215 10.4369ZM6.02985 10.7228C6.02985 10.7822 5.96059 10.8302 5.87482 10.8302C5.78904 10.8302 5.71999 10.7823 5.71999 10.7228C5.71999 10.6633 5.78925 10.6156 5.87482 10.6156C5.96038 10.6156 6.02985 10.6636 6.02985 10.7228Z" fill="#C5E6DA"/>
<path d="M6.53067 10.9136C6.53067 10.9728 6.46141 11.0208 6.37574 11.0208C6.29007 11.0208 6.2207 10.9729 6.2207 10.9136C6.2207 10.8544 6.28996 10.8062 6.37574 10.8062C6.46152 10.8062 6.53067 10.8542 6.53067 10.9136Z" fill="#C5E6DA"/>
<path d="M7.02872 10.9136C7.02872 10.9728 6.95946 11.0208 6.87379 11.0208C6.78812 11.0208 6.71875 10.9729 6.71875 10.9136C6.71875 10.8544 6.78801 10.8062 6.87379 10.8062C6.95956 10.8062 7.02872 10.8542 7.02872 10.9136Z" fill="#C5E6DA"/>
<path d="M7.53458 10.8306C7.53458 10.89 7.46532 10.938 7.37965 10.938C7.29398 10.938 7.22461 10.8901 7.22461 10.8306C7.22461 10.7712 7.29387 10.7232 7.37965 10.7232C7.46542 10.7232 7.53458 10.7712 7.53458 10.8306Z" fill="#C5E6DA"/>
</svg>
