<svg width="800" height="800" viewBox="0 0 800 800" fill="none" xmlns="http://www.w3.org/2000/svg">
<g clip-path="url(#clip0_713_154)">
<path d="M66.6667 466.667C66.6667 448.257 81.5905 433.333 100 433.333H166.667V633.333H100C81.5905 633.333 66.6667 618.41 66.6667 600V466.667Z" fill="#2F88FF"/>
<path d="M633.333 433.333H700C718.41 433.333 733.333 448.257 733.333 466.667V600C733.333 618.41 718.41 633.333 700 633.333H633.333V433.333Z" fill="#2F88FF"/>
<path d="M166.667 600V400C166.667 271.133 271.133 166.667 400 166.667C528.867 166.667 633.333 271.133 633.333 400V600M166.667 433.333H100C81.5905 433.333 66.6667 448.257 66.6667 466.667V600C66.6667 618.41 81.5905 633.333 100 633.333H166.667V433.333ZM633.333 433.333H700C718.41 433.333 733.333 448.257 733.333 466.667V600C733.333 618.41 718.41 633.333 700 633.333H633.333V433.333Z" stroke="black" stroke-width="66.6667" stroke-linecap="round" stroke-linejoin="round"/>
<path d="M266.667 533.333H333.333L366.667 433.333L433.333 633.333L466.667 533.333H533.333" stroke="black" stroke-width="66.6667" stroke-linecap="round" stroke-linejoin="round"/>
</g>
<defs>
<clipPath id="clip0_713_154">
<rect width="800" height="800" fill="white"/>
</clipPath>
</defs>
</svg>
