<svg width="19" height="19" viewBox="0 0 19 19" fill="none" xmlns="http://www.w3.org/2000/svg">
<path d="M13.2176 6.36618L13.2111 6.36342C13.2074 6.36196 13.2037 6.36066 13.2004 6.35735C13.1896 6.34572 13.1848 6.32972 13.1874 6.31404L13.5468 4.11328L15.2325 5.8018L13.4794 6.54873C13.4746 6.55071 13.4693 6.5517 13.4641 6.55149H13.4571C13.4548 6.55003 13.4525 6.54821 13.4478 6.54358C13.3826 6.47083 13.3045 6.4107 13.2176 6.36616L13.2176 6.36618ZM15.6626 6.23206L17.4649 8.037C17.8392 8.41233 18.0266 8.59953 18.095 8.81653C18.1052 8.84867 18.1136 8.88079 18.1201 8.91386L13.8128 7.08703C13.8105 7.08604 13.8082 7.08511 13.8058 7.08428C13.7886 7.07729 13.7686 7.06938 13.7686 7.05168C13.7686 7.03398 13.7891 7.0256 13.8063 7.01862L13.8119 7.01633L15.6626 6.23206ZM18.0466 9.49315C17.9536 9.66824 17.7723 9.84986 17.4654 10.1577L15.4333 12.1922L12.8051 11.6441L12.7912 11.6413C12.7679 11.6376 12.7433 11.6334 12.7433 11.6125C12.7231 11.393 12.6128 11.1918 12.4387 11.0569C12.428 11.0462 12.4308 11.0294 12.4341 11.0141C12.4341 11.0118 12.4341 11.0094 12.435 11.0075L12.9293 7.96856L12.9311 7.95831C12.9339 7.93503 12.9381 7.90802 12.959 7.90802C13.173 7.88136 13.3673 7.7698 13.4984 7.59835C13.5026 7.59372 13.5054 7.58857 13.511 7.58577C13.5259 7.57878 13.5435 7.58577 13.5589 7.59232L18.0462 9.49319L18.0466 9.49315ZM14.966 12.6602L11.6245 16.0065L12.1964 12.486L12.1974 12.4814C12.1978 12.4768 12.1988 12.4721 12.2001 12.4679C12.2048 12.4567 12.2169 12.452 12.2285 12.4474L12.2341 12.4451C12.3593 12.3916 12.4701 12.3091 12.5573 12.2043C12.5684 12.1913 12.5819 12.1787 12.5991 12.1764C12.6036 12.1757 12.6081 12.1757 12.6126 12.1764L14.9655 12.6607L14.966 12.6602ZM10.9172 16.7148L10.5406 17.092L6.37647 11.0653C6.37496 11.0631 6.3734 11.0609 6.37184 11.0587C6.36536 11.0499 6.35836 11.041 6.35975 11.0308C6.35975 11.0233 6.3649 11.0168 6.36998 11.0112L6.37461 11.0051C6.38717 10.9865 6.39786 10.9679 6.40948 10.9479L6.41878 10.9316L6.42024 10.9301C6.42678 10.9189 6.4328 10.9082 6.44395 10.9022C6.45371 10.8975 6.46721 10.8994 6.4779 10.9017L11.0912 11.8545C11.1041 11.8564 11.1162 11.8618 11.1265 11.8698C11.1326 11.8759 11.134 11.8824 11.1354 11.8899C11.2006 12.137 11.3774 12.3394 11.6134 12.437C11.6264 12.4436 11.6208 12.458 11.6148 12.4733C11.6118 12.4801 11.6095 12.4871 11.6079 12.4943C11.5497 12.8482 11.0513 15.8928 10.9173 16.7147L10.9172 16.7148ZM10.1304 17.5022C9.85283 17.7774 9.68914 17.9232 9.50407 17.9819C9.3216 18.0396 9.12576 18.0396 8.94328 17.9819C8.72659 17.9129 8.5392 17.7257 8.16487 17.3504L3.98311 13.1626L5.0754 11.4662C5.08055 11.4578 5.08563 11.4504 5.09399 11.4443C5.10561 11.4359 5.12236 11.4397 5.13631 11.4443C5.38702 11.5201 5.6562 11.5064 5.89798 11.4057C5.91054 11.401 5.9231 11.3977 5.93286 11.4066C5.9378 11.411 5.94211 11.4161 5.94588 11.4215L10.1304 17.5027L10.1304 17.5022ZM3.57995 12.7589L2.62065 11.7982L4.51507 10.9889C4.51991 10.9868 4.52513 10.9857 4.53042 10.9856C4.54622 10.9856 4.55553 11.0014 4.5639 11.0159C4.58294 11.0452 4.6031 11.0738 4.62435 11.1016L4.63041 11.109C4.636 11.1169 4.63223 11.1248 4.62667 11.1323L3.58041 12.7589L3.57995 12.7589ZM2.19611 11.3731L0.982451 10.1577C0.77599 9.95091 0.62626 9.80096 0.522099 9.67197L4.21235 10.4385C4.21698 10.4393 4.22164 10.4401 4.2263 10.4408C4.24909 10.4445 4.27419 10.4487 4.27419 10.4701C4.27419 10.4934 4.24676 10.5041 4.2235 10.5129L4.21281 10.5176L2.19611 11.3731ZM0.310059 9.04704C0.314284 8.96875 0.328327 8.8913 0.351906 8.81653C0.420726 8.59953 0.607657 8.41233 0.982448 8.037L2.53555 6.48166C3.25065 7.52098 3.96768 8.55896 4.68665 9.5956C4.69921 9.61236 4.71315 9.63099 4.69875 9.64496C4.63085 9.71993 4.56296 9.80189 4.51507 9.89083C4.50987 9.90226 4.50187 9.9122 4.49181 9.91971C4.48575 9.92346 4.47926 9.922 4.47229 9.92064H4.47135L0.310059 9.04657V9.04704ZM2.95127 6.06535L5.03866 3.97403C5.23536 4.06018 5.95006 4.3624 6.58851 4.63249C7.07211 4.83738 7.51294 5.02365 7.65151 5.08419C7.66545 5.08977 7.67801 5.09536 7.68406 5.10933C7.6878 5.11771 7.68588 5.12842 7.68406 5.13727C7.61691 5.44393 7.7083 5.76384 7.92725 5.98852C7.9412 6.00249 7.92725 6.02251 7.91516 6.03975L7.90868 6.04953L5.78827 9.33856C5.78268 9.34787 5.77758 9.35579 5.76827 9.36185C5.75711 9.36883 5.7413 9.36559 5.72828 9.36231C5.64581 9.34067 5.56103 9.3291 5.47579 9.32785C5.39953 9.32785 5.31676 9.34182 5.23306 9.35719H5.2326C5.2233 9.35864 5.21492 9.36047 5.20748 9.3549C5.19926 9.34815 5.1922 9.34016 5.18656 9.33115L2.95083 6.06541L2.95127 6.06535ZM5.46135 3.55167L8.16487 0.844259C8.5392 0.469394 8.72659 0.281729 8.94328 0.213275C9.12576 0.155491 9.3216 0.155491 9.50407 0.213275C9.72077 0.281729 9.90816 0.469394 10.2825 0.844259L10.8684 1.431L8.94561 4.41316C8.94087 4.42183 8.93436 4.42944 8.92654 4.4355C8.91492 4.44342 8.89864 4.44014 8.88469 4.4355C8.57692 4.34197 8.2429 4.40643 7.99188 4.6078C7.97933 4.62084 7.96074 4.61339 7.94492 4.60635C7.69382 4.49691 5.74081 3.67035 5.46135 3.5516L5.46135 3.55167ZM11.2767 1.83986L13.052 3.61779L12.6242 6.27118V6.27817C12.6239 6.28423 12.6226 6.29017 12.6205 6.29587C12.6159 6.30517 12.6065 6.30704 12.5972 6.30984C12.5058 6.33758 12.4196 6.38056 12.3424 6.43696C12.3391 6.43936 12.336 6.44201 12.3331 6.44488C12.328 6.45047 12.3229 6.45558 12.3145 6.45652C12.3077 6.45672 12.3009 6.45563 12.2945 6.45324L9.58914 5.3021L9.58399 5.29982C9.56678 5.29283 9.54632 5.28444 9.54632 5.26676C9.53042 5.11578 9.48118 4.97023 9.40217 4.84067C9.38914 4.81925 9.37473 4.79689 9.38589 4.77501L11.2767 1.83986ZM9.44827 5.84742L11.9844 6.92312C11.9983 6.92966 12.0137 6.93569 12.0197 6.95012C12.0222 6.95881 12.0222 6.96798 12.0197 6.97667C12.0123 7.01392 12.0058 7.0563 12.0058 7.09914V7.17039C12.0058 7.18808 11.9877 7.19553 11.9709 7.20252L11.9658 7.20435C11.564 7.37618 6.32529 9.61326 6.31738 9.61326C6.30948 9.61326 6.3011 9.61326 6.29321 9.60534C6.27926 9.59138 6.29321 9.57181 6.30576 9.55411C6.308 9.55104 6.31013 9.54791 6.31224 9.5448L8.39638 6.31305L8.40012 6.30746C8.41222 6.28791 8.42616 6.26602 8.44848 6.26602L8.46941 6.2693C8.51684 6.27584 8.55869 6.28186 8.60101 6.28186C8.91721 6.28186 9.21016 6.12773 9.38686 5.86416C9.39107 5.85711 9.39641 5.85083 9.40267 5.84552C9.41522 5.83621 9.43382 5.84089 9.44824 5.84734L9.44827 5.84742ZM6.54387 10.1246L12.2541 7.68589C12.2541 7.68589 12.2625 7.68589 12.2704 7.6938C12.3015 7.725 12.328 7.74595 12.3536 7.76551L12.3662 7.77343C12.3778 7.77997 12.3894 7.78739 12.3903 7.79951C12.3903 7.80414 12.3903 7.80696 12.3893 7.81115L11.9002 10.8203L11.8983 10.8324C11.8951 10.8557 11.8919 10.8822 11.87 10.8822C11.6052 10.9001 11.3663 11.0477 11.2315 11.2767L11.2292 11.2804C11.2228 11.2911 11.2167 11.3014 11.206 11.307C11.1962 11.3116 11.1837 11.3097 11.1734 11.3074L6.61968 10.3668C6.61505 10.3658 6.549 10.1251 6.54388 10.1246L6.54387 10.1246Z" fill="url(#paint0_radial_37_25)"/>
<defs>
<radialGradient id="paint0_radial_37_25" cx="0" cy="0" r="1" gradientUnits="userSpaceOnUse" gradientTransform="translate(9.21507 -8.75769) scale(17.8552 17.9006)">
<stop stop-color="#20C6B7"/>
<stop offset="1" stop-color="#4D9ABF"/>
</radialGradient>
</defs>
</svg>
